PathFileType	4	(X/Y/Z)	./resultDataOpenSim/trcMotMarkerGrf/sub10/qtm-02-06.trc
DataRate	CameraRate	NumFrames	NumMarkers	Units	OrigDataRate	OrigDataStartFrame	OrigNumFrames
250.000000	250.000000	11	24	m	250.000000	410	546
Frame#	Time	L.Toe.Tip			R.Toe.Tip			L.Ankle.Lat			R.Ankle.Lat			L.Ankle.Med			R.Ankle.Med			L.Heel			R.Heel			L.Knee.Lat			R.Knee.Lat			L.Knee.Med			R.Knee.Med			L.Thigh.Upper			R.Thigh.Upper			L.ASIS			R.ASIS			V.Sacral			L.Acromium			R.Acromium			C7			L.Elbow			R.Elbow			L.Wrist.Lat			R.Wrist.Lat
		X1	Y1	Z1	X2	Y2	Z2	X3	Y3	Z3	X4	Y4	Z4	X5	Y5	Z5	X6	Y6	Z6	X7	Y7	Z7	X8	Y8	Z8	X9	Y9	Z9	X10	Y10	Z10	X11	Y11	Z11	X12	Y12	Z12	X13	Y13	Z13	X14	Y14	Z14	X15	Y15	Z15	X16	Y16	Z16	X17	Y17	Z17	X18	Y18	Z18	X19	Y19	Z19	X20	Y20	Z20	X21	Y21	Z21	X22	Y22	Z22	X23	Y23	Z23	X24	Y24	Z24

410	1.636	0.82284907	0.058951301	-0.033849746	0.76259221	0.038495225	0.15048809	0.70677423	0.12859277	-0.021351399	0.62336321	0.055080569	0.1962694	0.74517777	0.13905795	0.054406439	0.6378667	0.079790897	0.11042167	0.65049393	0.11643597	0.040890428	0.56980994	0.030936723	0.1560054	0.87139664	0.47536363	-0.064813211	0.72922738	0.44712843	0.214735	0.90111876	0.44989562	0.050008088	0.72354898	0.45077933	0.085721034	0.72934126	0.82768472	-0.11076679	0.73469636	0.8647073	0.26806758	0.77120706	0.95008133	-0.050252348	0.79308117	0.9623429	0.19220852	0.58348138	0.9461185	0.080634969	0.69376458	1.4157556	-0.085002911	0.68594946	1.4124878	0.24085036	0.60616335	1.4401342	0.071047916	0.58700379	1.085383	-0.13080389	0.64208496	1.0633974	0.31202589	0.74302381	0.88035491	-0.15916833	0.82057373	0.89701256	0.35839798
411	1.64	0.83947164	0.058495224	-0.034191634	0.76262036	0.038519495	0.15051805	0.7215987	0.12547025	-0.020821335	0.6235312	0.055050216	0.19611501	0.76011368	0.13663502	0.05484121	0.63792299	0.079860391	0.11038639	0.66610377	0.11160841	0.041898358	0.56964816	0.031058362	0.15580103	0.87842735	0.47615089	-0.064691524	0.73054026	0.4468402	0.21489187	0.90891729	0.45078773	0.049845946	0.72535266	0.45048857	0.0858942	0.73511564	0.82805083	-0.11101823	0.73797038	0.86435267	0.26810888	0.77674239	0.95012261	-0.04991731	0.79732132	0.96185444	0.19263193	0.58797675	0.94615545	0.079937748	0.69811107	1.4156002	-0.084791805	0.69089354	1.4123874	0.24109446	0.61082995	1.439966	0.071464152	0.58971886	1.0856956	-0.13070785	0.64945355	1.0630178	0.31304405	0.7446564	0.8798462	-0.16035337	0.83043383	0.89894715	0.35804751
412	1.644	0.85603276	0.058078533	-0.034438371	0.76274446	0.038560051	0.15054238	0.7365063	0.12242045	-0.020352998	0.62359373	0.055068513	0.19602851	0.77527523	0.1343309	0.0551085	0.63797986	0.079898948	0.11032798	0.68170517	0.10694761	0.042783205	0.56951615	0.031197062	0.1555784	0.88540303	0.47683091	-0.06459465	0.73199938	0.44653446	0.21505994	0.91671055	0.45163362	0.049724891	0.72721925	0.45017067	0.08603938	0.74126003	0.82841196	-0.11128801	0.74123041	0.86394939	0.26814179	0.78229735	0.95012186	-0.049593854	0.80155367	0.96132294	0.19305271	0.59254068	0.94619539	0.079147528	0.70247292	1.4154062	-0.084583978	0.69585453	1.4122192	0.24133124	0.6154929	1.4397419	0.071884054	0.5924171	1.0859703	-0.13058311	0.65705213	1.0626418	0.31424985	0.74624397	0.87930819	-0.16154734	0.84029589	0.90087461	0.35766584
413	1.648	0.87254171	0.057701946	-0.034583328	0.76292555	0.03859517	0.1505594	0.75152651	0.11940523	-0.019923184	0.62361026	0.055112774	0.1959759	0.79085507	0.13217825	0.05502159	0.63804742	0.079920852	0.11025418	0.69733697	0.10247352	0.043564097	0.56936289	0.031370272	0.15527258	0.89231127	0.47739785	-0.064528222	0.73354363	0.44620704	0.21521276	0.92441581	0.45241876	0.049577075	0.72915275	0.44982607	0.086160318	0.74776112	0.82881072	-0.11167087	0.74452811	0.8635075	0.26816032	0.78785617	0.95007757	-0.049290066	0.80577663	0.96075061	0.19347	0.59725231	0.94621314	0.078302291	0.70684402	1.4151707	-0.084380799	0.70082787	1.4119799	0.24155687	0.62015733	1.4394698	0.072303491	0.59512376	1.0862086	-0.13043601	0.66463893	1.062218	0.31544672	0.74775715	0.87873174	-0.16277719	0.85009694	0.90278	0.35724407
414	1.652	0.88904053	0.057362244	-0.034638179	0.76307316	0.038611725	0.15057618	0.76667285	0.1163959	-0.019529797	0.62362949	0.055162989	0.19592704	0.80685042	0.13015825	0.054655649	0.63815441	0.079941127	0.11018594	0.71304819	0.098167643	0.044246436	0.56916032	0.031578942	0.15487179	0.89914157	0.47784698	-0.064495276	0.73515466	0.44585732	0.21534314	0.93202823	0.45314703	0.049403011	0.73115253	0.44946275	0.086262275	0.75458879	0.82929678	-0.1122698	0.74787237	0.86302907	0.26815386	0.79340721	0.94998775	-0.049013553	0.80998774	0.9601383	0.19387674	0.60225533	0.94621889	0.077630412	0.71121785	1.4148888	-0.084185843	0.70581724	1.4116722	0.24177358	0.624822	1.4391556	0.072711451	0.59787889	1.0864081	-0.13028953	0.67203374	1.0617128	0.31648217	0.7491947	0.87811149	-0.16406012	0.85978179	0.90465452	0.35677413
415	1.656	0.90555747	0.057055048	-0.034615995	0.76313735	0.038623585	0.15060393	0.78194866	0.11339815	-0.019186527	0.62366826	0.055210416	0.19587016	0.82263753	0.12812495	0.054721546	0.63833442	0.079970257	0.11014897	0.7288891	0.093991569	0.044821055	0.56896362	0.031788943	0.1544745	0.90588603	0.4781762	-0.064498505	0.73682707	0.44547958	0.21544922	0.93961432	0.45384822	0.049266818	0.73320426	0.44908839	0.086343122	0.76160728	0.82985971	-0.11307063	0.75129704	0.86252125	0.2680914	0.79894733	0.94985318	-0.048765871	0.81419057	0.95949097	0.19426791	0.60763004	0.94619763	0.077293583	0.71559602	1.4145604	-0.08399908	0.71082541	1.4113008	0.24198301	0.62948504	1.4388008	0.073100751	0.6007073	1.086564	-0.13016361	0.67922788	1.0611309	0.31734009	0.75059393	0.87745132	-0.16538511	0.86935082	0.90650074	0.35625543
416	1.66	0.9221004	0.056783767	-0.034524549	0.76314943	0.038649899	0.15064458	0.79735789	0.11043485	-0.01888592	0.62372542	0.055253018	0.19580466	0.83709722	0.12584829	0.056239276	0.63858599	0.080011882	0.11015193	0.74489779	0.089904074	0.045267052	0.56884446	0.031962422	0.15418958	0.91254016	0.47838272	-0.064541598	0.73855662	0.44506805	0.2155356	0.94726302	0.45456302	0.04925433	0.73529611	0.44870432	0.086400116	0.76849868	0.83038834	-0.11386562	0.75487125	0.86199507	0.26791827	0.80448084	0.94967619	-0.048543794	0.81839252	0.95881718	0.19464452	0.61328313	0.94607779	0.077148467	0.71999164	1.4141891	-0.083822755	0.71585149	1.410868	0.24218084	0.6341511	1.4384058	0.073471627	0.60360775	1.0866737	-0.13005857	0.68629815	1.0604895	0.31807334	0.7520458	0.87676476	-0.16671572	0.87884443	0.90832419	0.35569179
417	1.664	0.93867342	0.056562033	-0.034365829	0.76316328	0.038682308	0.15068413	0.81288631	0.10752511	-0.018603782	0.62379508	0.055291369	0.19573307	0.84983034	0.12328388	0.059372965	0.63884742	0.080062214	0.11017882	0.76105748	0.085893687	0.045587314	0.56881058	0.032095089	0.15403023	0.91910558	0.47846494	-0.06462754	0.7403403	0.44462495	0.21560808	0.95496825	0.45529308	0.049375134	0.73743727	0.44830579	0.0864475	0.77500421	0.83075404	-0.1144242	0.7586018	0.86144728	0.26760724	0.8100157	0.94945865	-0.048342498	0.82259689	0.95812046	0.19500834	0.6190185	0.94581237	0.076925183	0.72443083	1.4137756	-0.083673174	0.72089523	1.4103753	0.24236358	0.63882131	1.4379698	0.0738255	0.6065543	1.0867408	-0.12994937	0.69329289	1.0597882	0.31871418	0.7536688	0.87606009	-0.1680367	0.88829965	0.91012236	0.35508366
418	1.668	0.95528329	0.056408455	-0.034144907	0.76319934	0.038698015	0.15070725	0.82848912	0.10468567	-0.0183486	0.62387126	0.055326946	0.19565743	0.86204864	0.12074394	0.062795611	0.63903638	0.080117647	0.11021192	0.77730102	0.081992856	0.045834047	0.56882123	0.032208101	0.15393918	0.92559631	0.47842979	-0.064751829	0.74217293	0.4441543	0.2156595	0.96256877	0.45597202	0.049512266	0.73965931	0.44788747	0.086526241	0.78115224	0.83091872	-0.11470352	0.76228543	0.86083519	0.26726365	0.81555816	0.94920042	-0.048158457	0.82680027	0.95739696	0.19535865	0.62464942	0.9454395	0.076504329	0.72894394	1.4133156	-0.083577174	0.72595746	1.4098257	0.24253549	0.64349038	1.4374935	0.074161968	0.60951411	1.086772	-0.1298023	0.70024487	1.059005	0.31930714	0.75554957	0.87532824	-0.16938354	0.89773479	0.91188299	0.35442689
419	1.672	0.97192848	0.056341926	-0.033879989	0.76324519	0.038690898	0.15071185	0.84412237	0.10193271	-0.018166874	0.6239489	0.055360638	0.19557943	0.87558485	0.11865345	0.064720552	0.63912343	0.080186207	0.11023697	0.79355981	0.078255152	0.046030464	0.56884025	0.032321331	0.1538647	0.93204169	0.47829314	-0.064899971	0.74405191	0.44365557	0.21567909	0.96988494	0.45651964	0.049530802	0.7419953	0.44744809	0.08668135	0.78713273	0.83092881	-0.11481939	0.76557418	0.8600981	0.26714656	0.8211087	0.94889573	-0.047990398	0.83099732	0.95664298	0.19569516	0.63001375	0.9450014	0.075865045	0.73353074	1.4128078	-0.083543135	0.7310377	1.4092218	0.24269933	0.64816192	1.4369837	0.074483427	0.61248766	1.0867691	-0.12961158	0.70728281	1.0581089	0.32004203	0.75766972	0.87455934	-0.17079446	0.90715481	0.91359093	0.35371621
420	1.676	0.98859394	0.056382237	-0.033597396	0.76327558	0.038670207	0.15070317	0.85977037	0.099276967	-0.018093198	0.62402494	0.055392946	0.19550119	0.89127762	0.11719359	0.064370194	0.63915497	0.080280072	0.11021952	0.8097756	0.074730176	0.046078254	0.56885271	0.032444007	0.15378679	0.93846445	0.4780628	-0.065060403	0.74598759	0.44312952	0.21567374	0.97688268	0.45691246	0.049410686	0.7444359	0.4469892	0.08690406	0.79309191	0.83084517	-0.11489565	0.76841343	0.85924114	0.26742353	0.82666612	0.94852989	-0.047837604	0.83518736	0.95586081	0.19601859	0.63498075	0.94444558	0.074973847	0.73813751	1.4122628	-0.083537514	0.73613255	1.4085621	0.24284574	0.65284815	1.4364445	0.074794553	0.61550192	1.0867295	-0.12940051	0.71467168	1.0570812	0.32128027	0.75986626	0.87376721	-0.17224266	0.91654474	0.91524053	0.35295295
